<svg id="Layer_3" enable-background="new 0 0 64 64" height="512" viewBox="0 0 64 64" width="512" xmlns="http://www.w3.org/2000/svg"><g><path d="m54 42.8c0 13.255-9.85 19.2-22 19.2s-22-5.945-22-19.2 9.85-28.8 22-28.8 22 15.545 22 28.8z" fill="#f2c351"/><path d="m34 23c0-3.142-.525-6.16-1.48-8.979-.173-.007-.346-.021-.52-.021-12.15 0-22 15.545-22 28.8 0 2.909.475 5.465 1.344 7.685 12.907-2.496 22.656-13.849 22.656-27.485z" fill="#f7d881"/><circle cx="32" cy="40" fill="#c16b3f" r="14"/><path d="m33.821 26.132c-.597-.078-1.202-.132-1.821-.132-7.732 0-14 6.268-14 14 0 2.649.749 5.117 2.027 7.229 7.497-4.35 12.789-12.074 13.794-21.097z" fill="#e39854"/><path d="m26 11-4.489-5.387c-.33-.396-.511-.895-.511-1.41 0-1.217.986-2.203 2.203-2.203h.726c1.326 0 2.598.527 3.536 1.464.296.296.775.296 1.071 0l.05-.05c.905-.905 2.133-1.414 3.414-1.414 1.281 0 2.509.509 3.414 1.414l.05.05c.296.296.775.296 1.071 0 .938-.937 2.21-1.464 3.536-1.464h.101c1.562 0 2.828 1.266 2.828 2.828 0 .75-.298 1.47-.828 2l-4.172 4.172" fill="#f2c351"/><g fill="#f9d18b"><path d="m27.927 5.628-1.857.743 1.852 4.629h2.154z"/><path d="m33.922 11h2.154l1.852-4.629-1.857-.743z"/><path d="m30.999 4.999h1.999v6.001h-1.999z"/></g><path d="m33 39h-.002v-6h.002c.801 0 1.554.312 2.12.878.567.566.879 1.32.878 2.122v1h2v-1c.001-1.335-.519-2.591-1.463-3.536s-2.2-1.464-3.535-1.464h-.002v-2h-1.999v2c-2.758 0-5 2.243-5 5 0 2.756 2.242 4.999 5 4.999v6c-1.654 0-3-1.345-3-2.999v-1.001h-2v1.001c0 2.756 2.242 4.999 5 4.999v2h1.999v-2h.002c2.757 0 5-2.243 5-5s-2.243-4.999-5-4.999zm-5.001-3c0-1.654 1.346-3 3-3v6c-1.654 0-3-1.347-3-3zm5.001 10.999h-.002v-6h.002c1.653 0 3 1.346 3 3.001 0 1.654-1.347 2.999-3 2.999z" fill="#f7d881"/><g><path d="m23.808 17.764h6.97v1.999h-6.97z" fill="#f5b953" transform="matrix(.371 -.929 .929 .371 -.266 37.135)"/></g><g><path d="m35.705 15.279h1.999v6.97h-1.999z" fill="#f9d18b" transform="matrix(.929 -.371 .371 .929 -4.344 14.975)"/></g><g><path d="m31 15.528h2v6.471h-2z" fill="#f5b953"/></g><path d="m38 17h-12c-1.657 0-3-1.343-3-3 0-1.657 1.343-3 3-3h12c1.657 0 3 1.343 3 3 0 1.657-1.343 3-3 3z" fill="#c16b3f"/><path d="m33.349 17c-.458-2.097-1.148-4.107-2.047-6h-5.302c-1.657 0-3 1.343-3 3s1.343 3 3 3z" fill="#e39854"/><g><path d="m41.427 15.978c.354-.597.571-1.284.571-2.027 0-1.511-.852-2.813-2.091-3.493l2.971-2.971c.723-.723 1.12-1.685 1.12-2.707 0-2.111-1.717-3.828-3.827-3.828h-.101c-1.522 0-2.958.563-4.069 1.59-1.087-1.027-2.502-1.59-4.002-1.59-1.479 0-2.876.548-4 1.592-1.111-1.028-2.548-1.592-4.07-1.592h-.727c-1.767 0-3.203 1.437-3.203 3.203 0 .748.264 1.476.742 2.05l3.484 4.181c-1.313.656-2.226 2.001-2.226 3.567 0 .743.217 1.431.571 2.027-7.799 5.155-13.57 16.411-13.57 26.771 0 12.46 8.812 20.2 23 20.2 14.187 0 22.999-7.74 22.999-20.2 0-10.361-5.772-21.616-13.572-26.773zm-19.428-11.824c0-.664.539-1.203 1.203-1.203h.727c1.067 0 2.072.416 2.827 1.171.687.686 1.8.687 2.535-.05 1.449-1.445 3.918-1.496 5.465.05.686.685 1.801.685 2.486 0 .755-.755 1.76-1.171 2.828-1.171h.101c1.008 0 1.827.82 1.827 1.828 0 .488-.189.948-.535 1.293l-3.878 3.879h-1.108l1.452-3.629-1.858-.742-1.749 4.372h-1.325v-5h-1.999v5h-1.324l-1.747-4.372-1.857.742 1.452 3.629h-1.055l-4.19-5.028c-.179-.215-.278-.489-.278-.769zm4 7.797h12.001c1.102 0 1.998.897 1.998 2s-.896 2-1.998 2h-12.001c-1.104 0-2-.897-2-2s.897-2 2-2zm6.001 49c-13.15 0-21-6.804-21-18.2 0-9.904 5.57-20.654 13.033-25.338.583.333 1.248.538 1.966.538h.523l-1.452 3.629 1.856.743 1.749-4.372h2.324v4h1.999v-4h2.325l1.749 4.372 1.856-.743-1.452-3.629h.524c.717 0 1.382-.205 1.964-.538 7.464 4.684 13.035 15.433 13.035 25.338 0 11.396-7.85 18.2-20.999 18.2z"/><path d="m33 38.951h-.002v-6h.002c.801 0 1.554.312 2.12.878.567.566.879 1.32.878 2.122v1h2v-1c.001-1.335-.519-2.591-1.463-3.536s-2.2-1.464-3.535-1.464h-.002v-2h-1.999v2c-2.758 0-5 2.243-5 5s2.242 5 5 5v6c-1.654 0-3-1.346-3-3v-1h-2v1c0 2.757 2.242 5 5 5v2h1.999v-2h.002c2.757 0 5-2.243 5-5s-2.243-5-5-5zm-5.001-3c0-1.654 1.346-3 3-3v6c-1.654 0-3-1.346-3-3zm5.001 11h-.002v-6h.002c1.653 0 3 1.346 3 3s-1.347 3-3 3z"/><path d="m32 24.951c-8.271 0-15 6.729-15 15s6.729 15 15 15 14.999-6.729 14.999-15-6.728-15-14.999-15zm0 28c-7.169 0-13-5.832-13-13s5.831-13 13-13c7.168 0 12.999 5.832 12.999 13s-5.831 13-12.999 13z"/></g></g></svg>