<?xml version="1.0" encoding="iso-8859-1"?>
<!-- Generator: Adobe Illustrator 19.0.0, SVG Export Plug-In . SVG Version: 6.00 Build 0)  -->
<svg version="1.1" id="Capa_1" xmlns="http://www.w3.org/2000/svg" xmlns:xlink="http://www.w3.org/1999/xlink" x="0px" y="0px"
	 viewBox="0 0 512 512" style="enable-background:new 0 0 512 512;" xml:space="preserve">
<path style="fill:#8CC152;" d="M483.974,220.03c-23.997-23.998-39.995-23.998-55.993-23.998H84.021
	c-15.998,0-31.996,0-55.993,23.998l-15.999,15.982v18.35h487.944v-18.35L483.974,220.03z"/>
<path style="fill:#CCD1D9;" d="M60.022,220.03c23.997-23.998,39.995-23.998,55.994-23.998H84.021c-15.998,0-31.996,0-55.993,23.998
	l-15.999,15.982v18.35h31.997v-18.35L60.022,220.03z"/>
<g style="opacity:0.7;">
	<path style="fill:#FFFFFF;" d="M44.024,220.03c23.997-23.998,39.995-23.998,55.993-23.998H84.021c-15.998,0-31.996,0-55.993,23.998
		l-15.999,15.982v18.35h15.999v-18.35L44.024,220.03z"/>
</g>
<path style="fill:#CCD1D9;" d="M451.978,220.03c-23.997-23.998-39.995-23.998-55.994-23.998h31.997c15.998,0,31.996,0,55.993,23.998
	l15.998,15.982v18.35h-31.996v-18.35L451.978,220.03z"/>
<g style="opacity:0.1;">
	<path d="M467.977,220.03c-23.997-23.998-39.995-23.998-55.993-23.998h15.998c15.998,0,31.996,0,55.993,23.998l15.998,15.982v18.35
		h-15.998v-18.35L467.977,220.03z"/>
</g>
<polygon style="fill:#656D78;" points="403.983,212.031 108.018,212.031 100.019,228.029 411.982,228.029 "/>
<g style="opacity:0.2;">
	<polygon points="108.018,212.031 100.019,228.029 108.018,228.029 116.017,212.031 	"/>
</g>
<g style="opacity:0.2;">
	<polygon points="403.983,212.031 411.982,228.029 403.983,228.029 395.983,212.031 	"/>
</g>
<polygon style="fill:#E6E9ED;" points="387.985,228.029 124.016,228.029 124.016,4.023 331.991,4.023 387.985,68.039 "/>
<path style="fill:#A0D468;" d="M483.974,244.027H28.026c-13.202,0-23.998,10.795-23.998,24.001v183.979
	c0,13.202,10.795,23.997,23.998,23.997h455.947c13.202,0,23.998-10.795,23.998-23.997V268.028
	C507.972,254.823,497.176,244.027,483.974,244.027z"/>
<polygon style="fill:#FFFFFF;" points="331.991,4.023 331.991,60.048 387.985,60.048 "/>
<rect x="84.021" y="396.01" style="fill:#656D78;" width="343.96" height="39.995"/>
<polygon style="fill:#E6E9ED;" points="397.983,436.009 114.349,436.009 92.02,492.002 419.981,492.002 "/>
<rect x="92.021" y="492" style="fill:#CCD1D9;" width="327.96" height="15.999"/>
<rect x="228.001" y="492" style="fill:#656D78;" width="55.994" height="15.999"/>
<g style="opacity:0.2;">
	<polygon points="401.124,444.008 397.983,436.009 114.349,436.009 111.158,444.008 	"/>
</g>
<g style="opacity:0.2;">
	<rect x="124.021" y="220.03" width="263.97" height="7.999"/>
</g>
<path style="fill:#E6E9ED;" d="M44.024,244.027H28.026c-13.202,0-23.998,10.795-23.998,24.001v183.979
	c0,13.202,10.795,23.997,23.998,23.997h15.998V244.027z"/>
<path style="fill:#FFFFFF;" d="M20.028,452.007V268.028c0-13.206,10.795-24.001,23.997-24.001H28.026
	c-13.202,0-23.998,10.795-23.998,24.001v183.979c0,13.202,10.795,23.997,23.998,23.997h15.998
	C30.823,476.004,20.028,465.209,20.028,452.007z"/>
<path style="fill:#E6E9ED;" d="M467.977,476.004h15.998c13.202,0,23.998-10.795,23.998-23.997V268.028
	c0-13.206-10.796-24.001-23.998-24.001h-15.998V476.004z"/>
<g style="opacity:0.1;">
	<path d="M487.974,268.028v183.979c0,13.202-10.796,23.997-23.998,23.997h15.999c13.201,0,23.997-10.795,23.997-23.997V268.028
		c0-13.206-10.796-24.001-23.997-24.001h-15.999C477.178,244.027,487.974,254.823,487.974,268.028z"/>
</g>
<g style="opacity:0.2;">
	<rect x="84.021" y="396.01" style="fill:#FFFFFF;" width="15.998" height="39.995"/>
</g>
<g style="opacity:0.2;">
	<rect x="411.98" y="396.01" width="15.998" height="39.995"/>
</g>
<polygon style="fill:#FFFFFF;" points="111.158,444.008 92.02,492.002 108.018,492.002 127.156,444.008 "/>
<g style="opacity:0.2;">
	<polygon points="400.843,444.008 419.981,492.002 403.983,492.002 384.845,444.008 	"/>
</g>
<g style="opacity:0.7;">
	<rect x="92.021" y="492" style="fill:#FFFFFF;" width="15.998" height="15.999"/>
</g>
<g style="opacity:0.2;">
	<rect x="403.98" y="492" width="15.998" height="15.999"/>
</g>
<g style="opacity:0.2;">
	<rect x="228.001" y="492" style="fill:#FFFFFF;" width="7.667" height="15.999"/>
</g>
<g style="opacity:0.2;">
	<rect x="276.32" y="492" width="7.672" height="15.999"/>
</g>
<g style="opacity:0.2;">
	<rect x="220.001" y="492" width="7.999" height="15.999"/>
</g>
<g style="opacity:0.2;">
	<rect x="284" y="492" width="7.999" height="15.999"/>
</g>
<rect x="124.021" y="4.02" style="fill:#FFFFFF;" width="7.999" height="216.01"/>
<g style="opacity:0.2;">
	<rect x="379.99" y="59.55" width="8" height="160.48"/>
</g>
<g>
	<path style="fill:#3A3847;" d="M428.215,296.025c-2.203,0-4.031-1.797-4.031-4c0-2.219,1.75-4,3.953-4h0.078
		c2.218,0,3.999,1.781,3.999,4C432.214,294.229,430.434,296.025,428.215,296.025z"/>
	<path style="fill:#3A3847;" d="M404.218,296.025c-2.203,0-4.031-1.797-4.031-4c0-2.219,1.75-4,3.953-4h0.078
		c2.218,0,3.999,1.781,3.999,4C408.217,294.229,406.436,296.025,404.218,296.025z"/>
	<path style="fill:#3A3847;" d="M380.22,296.025c-2.202,0-4.03-1.797-4.03-4c0-2.219,1.75-4,3.952-4h0.078c2.219,0,4,1.781,4,4
		C384.22,294.229,382.438,296.025,380.22,296.025z"/>
	<path style="fill:#3A3847;" d="M483.974,480.004c-2.211,0-3.999-1.797-3.999-4c0-2.218,1.788-3.999,3.999-3.999
		c11.03,0,19.998-8.968,19.998-19.998V268.028c0-11.034-8.968-20.002-19.998-20.002H28.026c-11.026,0-19.998,8.968-19.998,20.002
		v183.979c0,11.03,8.972,19.998,19.998,19.998c2.21,0,3.999,1.781,3.999,3.999c0,2.203-1.789,4-3.999,4
		c-15.436,0-27.997-12.561-27.997-27.997V268.028c0-15.439,12.561-28.001,27.997-28.001h455.947
		c15.436,0,27.997,12.562,27.997,28.001v183.979C511.971,467.443,499.409,480.004,483.974,480.004z"/>
	<path style="fill:#3A3847;" d="M12.029,240.012c-1.023,0-2.046-0.391-2.828-1.172c-1.563-1.562-1.563-4.093,0-5.655l15.998-15.982
		c25.169-25.169,42.276-25.169,58.821-25.169c2.211,0,4,1.789,4,3.999c0,2.211-1.789,4-4,4c-15.604,0-30.34,0-53.166,22.825
		L14.856,238.84C14.075,239.621,13.052,240.012,12.029,240.012z"/>
	<path style="fill:#3A3847;" d="M499.972,240.012c-1.023,0-2.046-0.391-2.827-1.172l-15.999-15.982
		c-22.825-22.825-37.558-22.825-53.165-22.825c-2.211,0-4-1.789-4-4c0-2.21,1.789-3.999,4-3.999c16.545,0,33.652,0,58.821,25.169
		l15.998,15.982c1.563,1.563,1.563,4.093,0,5.655C502.02,239.621,500.995,240.012,499.972,240.012z"/>
	<path style="fill:#3A3847;" d="M108.018,200.032H84.021c-2.21,0-4-1.789-4-4c0-2.21,1.789-3.999,4-3.999h23.997
		c2.211,0,4,1.789,4,3.999C112.018,198.243,110.229,200.032,108.018,200.032z"/>
	<path style="fill:#3A3847;" d="M427.98,200.032h-23.997c-2.211,0-4-1.789-4-4c0-2.21,1.789-3.999,4-3.999h23.997
		c2.21,0,3.999,1.789,3.999,3.999C431.979,198.243,430.19,200.032,427.98,200.032z"/>
	<path style="fill:#3A3847;" d="M44.024,240.027c-1.102,0-2.203-0.453-2.992-1.344c-1.465-1.656-1.316-4.179,0.336-5.647
		l36.051-31.996c1.645-1.461,4.175-1.328,5.647,0.336c1.465,1.656,1.316,4.179-0.336,5.647l-36.05,31.997
		C45.918,239.691,44.971,240.027,44.024,240.027z"/>
	<path style="fill:#3A3847;" d="M44.024,472.005c-2.211,0-4-1.797-4-3.999v-215.98c0-2.211,1.789-4,4-4c2.21,0,4,1.789,4,4v215.979
		C48.024,470.208,46.236,472.005,44.024,472.005z"/>
	<path style="fill:#3A3847;" d="M467.977,240.027c-0.953,0-1.914-0.336-2.68-1.031L429.824,207
		c-1.641-1.477-1.766-4.007-0.289-5.647c1.483-1.641,4.007-1.773,5.647-0.289l35.473,31.996c1.641,1.477,1.773,4.007,0.289,5.647
		C470.155,239.582,469.069,240.027,467.977,240.027z"/>
	<path style="fill:#3A3847;" d="M467.977,472.005c-2.211,0-4-1.797-4-3.999v-215.98c0-2.211,1.789-4,4-4s4,1.789,4,4v215.979
		C471.977,470.208,470.188,472.005,467.977,472.005z"/>
	<path style="fill:#3A3847;" d="M84.021,480.004H28.026c-2.211,0-4-1.797-4-4c0-2.218,1.789-3.999,4-3.999h55.994
		c2.211,0,4,1.781,4,3.999C88.021,478.207,86.231,480.004,84.021,480.004z"/>
	<path style="fill:#3A3847;" d="M483.974,480.004H427.98c-2.211,0-4-1.797-4-4c0-2.218,1.789-3.999,4-3.999h55.993
		c2.211,0,4,1.781,4,3.999C487.974,478.207,486.185,480.004,483.974,480.004z"/>
	<path style="fill:#3A3847;" d="M419.981,512H92.02c-2.21,0-3.999-1.797-3.999-3.999c0-2.219,1.789-4,3.999-4h327.963
		c2.211,0,3.999,1.781,3.999,4C423.98,510.203,422.192,512,419.981,512z"/>
	<path style="fill:#3A3847;" d="M283.997,512h-55.994c-2.21,0-3.999-1.797-3.999-3.999v-15.999c0-2.218,1.789-3.999,3.999-3.999
		h55.994c2.211,0,3.999,1.781,3.999,3.999v15.999C287.996,510.203,286.208,512,283.997,512z M232.004,504.001h47.994v-7.999h-47.994
		V504.001z"/>
	<path style="fill:#3A3847;" d="M212.006,496.002H92.02c-2.21,0-3.999-1.797-3.999-4c0-2.218,1.789-3.999,3.999-3.999h119.986
		c2.211,0,4,1.781,4,3.999C216.006,494.205,214.217,496.002,212.006,496.002z"/>
	<path style="fill:#3A3847;" d="M419.981,496.002H299.995c-2.211,0-4-1.797-4-4c0-2.218,1.789-3.999,4-3.999h119.986
		c2.211,0,3.999,1.781,3.999,3.999C423.98,494.205,422.192,496.002,419.981,496.002z"/>
	<path style="fill:#3A3847;" d="M427.98,464.006c-2.211,0-4-1.797-4-4v-59.993H88.021v59.993c0,2.203-1.789,4-4,4
		c-2.21,0-4-1.797-4-4v-63.992c0-2.219,1.789-4,4-4h343.96c2.21,0,3.999,1.781,3.999,4v63.992
		C431.979,462.209,430.19,464.006,427.98,464.006z"/>
	<path style="fill:#3A3847;" d="M92.02,496.002c-0.496,0-0.996-0.094-1.48-0.281c-2.054-0.828-3.054-3.156-2.234-5.202
		l19.138-47.995c0.82-2.046,3.16-3.03,5.195-2.233c2.054,0.812,3.054,3.14,2.234,5.202l-19.138,47.994
		C95.109,495.049,93.604,496.002,92.02,496.002z"/>
	<path style="fill:#3A3847;" d="M419.981,496.002c-1.594,0-3.109-0.969-3.719-2.547l-18.857-47.994
		c-0.813-2.047,0.203-4.375,2.266-5.187c2.039-0.797,4.375,0.203,5.18,2.265l18.849,47.995c0.813,2.062-0.203,4.374-2.257,5.187
		C420.966,495.908,420.466,496.002,419.981,496.002z"/>
	<path style="fill:#3A3847;" d="M419.981,440.009H92.02c-2.21,0-3.999-1.797-3.999-4c0-2.218,1.789-3.999,3.999-3.999h327.963
		c2.211,0,3.999,1.781,3.999,3.999C423.98,438.212,422.192,440.009,419.981,440.009z"/>
	<path style="fill:#3A3847;" d="M267.999,424.01h-23.998c-2.21,0-4-1.796-4-3.999c0-2.219,1.789-3.999,4-3.999h23.998
		c2.21,0,3.999,1.78,3.999,3.999C271.998,422.214,270.21,424.01,267.999,424.01z"/>
	<path style="fill:#3A3847;" d="M124.016,215.999c-2.21,0-4-1.789-4-4V4.023c0-2.211,1.789-4,4-4s4,1.789,4,4V212
		C128.016,214.21,126.227,215.999,124.016,215.999z"/>
	<path style="fill:#3A3847;" d="M387.985,215.999c-2.211,0-4-1.789-4-4V60.048c0-2.21,1.789-3.999,4-3.999
		c2.21,0,3.999,1.789,3.999,3.999V212C391.984,214.21,390.195,215.999,387.985,215.999z"/>
	<path style="fill:#3A3847;" d="M331.991,8.038L331.991,8.038L124.016,7.999c-2.21,0-4-1.789-4-3.999c0-2.211,1.793-4,4-4l0,0
		l207.976,0.039c2.211,0,4,1.789,4,4S334.194,8.038,331.991,8.038z"/>
	<path style="fill:#3A3847;" d="M100.015,232.028c-0.602,0-1.21-0.133-1.785-0.422c-1.976-0.992-2.777-3.39-1.789-5.366
		l7.999-15.999c0.992-1.968,3.394-2.789,5.366-1.789c1.977,0.992,2.777,3.39,1.789,5.366l-7.999,15.998
		C102.894,231.216,101.483,232.028,100.015,232.028z"/>
	<path style="fill:#3A3847;" d="M411.982,232.028H100.019c-2.21,0-3.999-1.789-3.999-4s1.789-4,3.999-4h311.965
		c2.21,0,3.999,1.789,3.999,4S414.192,232.028,411.982,232.028z"/>
	<path style="fill:#3A3847;" d="M411.982,232.028c-1.469,0-2.875-0.813-3.578-2.211l-7.999-15.998
		c-0.984-1.976-0.188-4.374,1.789-5.366c1.984-1,4.374-0.18,5.366,1.789l7.999,15.999c0.984,1.976,0.188,4.374-1.789,5.366
		C413.201,231.896,412.592,232.028,411.982,232.028z"/>
	<path style="fill:#3A3847;" d="M331.991,64.048c-2.211,0-4-1.789-4-4V20.053c0-2.211,1.789-4,4-4s4,1.789,4,4v39.995
		C335.991,62.259,334.202,64.048,331.991,64.048z"/>
	<path style="fill:#3A3847;" d="M371.987,64.048h-39.996c-2.211,0-4-1.789-4-4c0-2.21,1.789-3.999,4-3.999h39.996
		c2.21,0,3.999,1.789,3.999,3.999C375.986,62.259,374.197,64.048,371.987,64.048z"/>
	<path style="fill:#3A3847;" d="M387.985,64.048c-1.023,0-2.047-0.391-2.828-1.172L329.163,6.867c-1.563-1.562-1.563-4.093,0-5.656
		s4.094-1.563,5.656,0l55.993,56.009c1.563,1.562,1.563,4.093,0,5.656C390.031,63.657,389.009,64.048,387.985,64.048z"/>
	<path style="fill:#3A3847;" d="M355.988,112.042H156.012c-2.211,0-4-1.789-4-4s1.789-4,4-4H355.99c2.211,0,4,1.789,4,4
		S358.199,112.042,355.988,112.042z"/>
	<path style="fill:#3A3847;" d="M355.988,144.038H156.012c-2.211,0-4-1.789-4-3.999c0-2.211,1.789-4,4-4H355.99c2.211,0,4,1.789,4,4
		C359.988,142.25,358.199,144.038,355.988,144.038z"/>
	<path style="fill:#3A3847;" d="M355.988,176.035H156.012c-2.211,0-4-1.789-4-4s1.789-4,4-4H355.99c2.211,0,4,1.789,4,4
		S358.199,176.035,355.988,176.035z"/>
</g>
<g>
</g>
<g>
</g>
<g>
</g>
<g>
</g>
<g>
</g>
<g>
</g>
<g>
</g>
<g>
</g>
<g>
</g>
<g>
</g>
<g>
</g>
<g>
</g>
<g>
</g>
<g>
</g>
<g>
</g>
</svg>
